<svg viewBox="0 0 512 512" xmlns="http://www.w3.org/2000/svg"><path d="m512 0v360l-30 30h-452l-30-30v-360zm0 0" fill="#5a5a5a"/><path d="m512 0v360l-30 30h-226v-390zm0 0" fill="#444"/><path d="m30 30h452v360h-452zm0 0" fill="#ffe470"/><path d="m256 30h226v360h-226zm0 0" fill="#ffd400"/><path d="m211 405h90v92h-90zm0 0" fill="#5a5a5a"/><path d="m256 405h45v92h-45zm0 0" fill="#444"/><path d="m151 482h210v30h-210zm0 0" fill="#6e6e6e"/><path d="m256 482h105v30h-105zm0 0" fill="#5a5a5a"/><path d="m0 360h512v60h-512zm0 0" fill="#6e6e6e"/><path d="m256 360h256v60h-256zm0 0" fill="#5a5a5a"/><path d="m157.667969 245.523438 16.640625 24.964843-45.003906 30-16.640626-24.964843zm0 0" fill="#5a5a5a"/><path d="m354.335938 245.53125 45.003906 30-16.640625 24.960938-45.003907-30zm0 0" fill="#444"/><path d="m241 60h30v45h-30zm0 0" fill="#5a5a5a"/><path d="m256 60h15v45h-15zm0 0" fill="#444"/><path d="m256 330 105-60v-120l-66.332031 7.902344-38.667969 52.097656-30 69.375zm0 0" fill="#ff4b00"/><path d="m256 330-105-60v-120l67.5 8.570312 37.5 51.429688zm0 0" fill="#ff7816"/><path d="m256 90-105 60 105 60 105-60zm0 0" fill="#ff9f00"/><path d="m361 150-105-60v120zm0 0" fill="#ff7816"/></svg>